<svg width="15" height="16" viewBox="0 0 15 16" fill="none" xmlns="http://www.w3.org/2000/svg">
<g clip-path="url(#clip0_1703_194)">
<path d="M13.682 2.58447H1.31872C1.11578 2.58447 0.925791 2.63437 0.753906 2.7166L7.47106 9.43376L8.9766 7.98687C8.9766 7.98687 8.97672 7.98673 8.97675 7.98667C8.97678 7.98661 8.97689 7.98655 8.97689 7.98655L14.247 2.71672C14.0751 2.63442 13.885 2.58447 13.682 2.58447Z" fill="white"/>
<path d="M14.8686 3.33813L9.90918 8.29733L14.8685 13.2566C14.9507 13.0847 15.0006 12.8947 15.0006 12.6918V3.90274C15.0006 3.69992 14.9508 3.50996 14.8686 3.33813Z" fill="white"/>
<path d="M0.132129 3.33789C0.0498926 3.50978 0 3.69977 0 3.90271V12.6918C0 12.8946 0.049834 13.0846 0.132012 13.2564L5.09147 8.29724L0.132129 3.33789Z" fill="white"/>
<path d="M9.28774 8.919L7.78199 10.3661C7.69615 10.4519 7.58371 10.4948 7.4713 10.4948C7.35889 10.4948 7.24642 10.4519 7.16061 10.3661L5.71346 8.91895L0.753906 13.8782C0.92582 13.9605 1.11593 14.0104 1.31893 14.0104H13.6822C13.8851 14.0104 14.0751 13.9605 14.247 13.8783L9.28774 8.919Z" fill="white"/>
</g>
<defs>
<clipPath id="clip0_1703_194">
<rect width="15" height="15" fill="white" transform="translate(0 0.797363)"/>
</clipPath>
</defs>
</svg>
