<svg width="15" height="16" viewBox="0 0 15 16" fill="none" xmlns="http://www.w3.org/2000/svg">
<g clip-path="url(#clip0_1703_190)">
<path d="M13.5873 2.21049C11.7025 0.325649 8.63576 0.325679 6.75092 2.21052C5.46347 3.49797 5.01628 5.39527 5.57374 7.11661L0.129736 12.5606C0.0473242 12.6431 0.000976562 12.7546 0.000976562 12.8714V15.3574C0.000976562 15.6003 0.197529 15.7969 0.44043 15.7969H2.9265C3.04322 15.7969 3.15481 15.7505 3.2372 15.6681L3.85861 15.0463C3.95345 14.9514 3.99979 14.8184 3.98436 14.6849L3.9071 14.0172L4.83235 13.93C5.04265 13.9103 5.20873 13.7442 5.22848 13.5339L5.31561 12.6087L5.98337 12.6863C6.10738 12.7031 6.23228 12.6614 6.32626 12.5782C6.4198 12.4945 6.47345 12.3752 6.47345 12.2499V11.4317H7.27683C7.39354 11.4317 7.50514 11.3853 7.58752 11.3029L8.71448 10.1908C10.4354 10.7487 12.2999 10.3352 13.5873 9.04692C15.4722 7.1621 15.4722 4.09534 13.5873 2.21049ZM12.3441 5.31801C11.83 5.83214 10.994 5.83214 10.4799 5.31801C9.96572 4.80388 9.96572 3.9679 10.4799 3.45376C10.994 2.93963 11.83 2.93963 12.3441 3.45376C12.8582 3.9679 12.8582 4.80388 12.3441 5.31801Z" fill="white"/>
</g>
<defs>
<clipPath id="clip0_1703_190">
<rect width="15" height="15" fill="white" transform="translate(0 0.797363)"/>
</clipPath>
</defs>
</svg>
