<svg width="15" height="15" viewBox="0 0 15 15" fill="none" xmlns="http://www.w3.org/2000/svg">
<g clip-path="url(#clip0_1703_209)">
<path d="M7.50008 -0.000244141C5.56043 -0.000244141 3.99023 1.56995 3.99023 3.50961C3.99023 5.44926 5.56043 7.01946 7.50008 7.01946C9.43974 7.01946 11.0099 5.44926 11.0099 3.50961C11.0099 1.56995 9.43974 -0.000244141 7.50008 -0.000244141Z" fill="white"/>
<path d="M8.86718 7.42578H6.13319C3.38073 7.42578 1.14551 9.66101 1.14551 12.4135V14.4455C1.14551 14.7596 1.38566 14.9997 1.69969 14.9997H13.3007C13.6147 14.9997 13.8549 14.7596 13.8549 14.4455V12.4135C13.8549 9.66101 11.6196 7.42578 8.86718 7.42578Z" fill="white"/>
</g>
<defs>
<clipPath id="clip0_1703_209">
<rect width="15" height="15" fill="white"/>
</clipPath>
</defs>
</svg>
